<svg xmlns="http://www.w3.org/2000/svg" viewBox="0 0 375.97 109.13"><defs><linearGradient id="a"><stop offset="0" stop-color="#6d7cff"/><stop offset="1" stop-color="#ff51ff"/></linearGradient></defs><path d="M-.24 60c-.12 0-.18-.06-.18-.18s-.18-.3-.42-.36c-.36-.12-.42-.3-.48-1.08 0-.24-.06-.36-.12-.36l-.6-.06c-.18-.06-.3-.12-.3-.24l.12-.54-.06-.12c-.12-.06-.18-.3-.18-.6 0-.24-.06-.54-.12-.6-.12-.12-.18-.54-.18-.96v-.42c0-.36.12-.36.66-.36l1.08-.18c.12 0 .18.06.18.12 0 .12 0 .18.12.18l.54-.18v.18c0 .06.06.06.12.06.06-.06.12-.12.12-.18v-.18h.12l.36.06-.06-.24.42.06c.06 0 .12-.06.12-.12s.06-.06.06-.06h.06l.24-.12c.12-.12.3-.18.36-.18l.06.06.06-.12c0-.06.12-.18.3-.24.66-.18 1.44-.6 1.44-.84s1.08-.78 1.32-.78h.06c0 .12-.24.24-.54.42-.36.18-.54.3-.54.36l.18.06c.24 0 .42-.06.54-.18.06-.12.24-.24.3-.3.12 0 .3-.12.42-.24.06-.06.3-.18.42-.18.18 0 .3-.06.36-.12s.24-.18.42-.24c.24-.06.48-.18.6-.3.06-.06.18-.12.3-.12h.24v-.18c0-.06 0-.06.06-.06l.66-.12c.06 0 .36-.18.6-.36l.54-.3c.24-.06.84-.42.84-.54s.66-.42 1.08-.42c.18 0 .3-.06.3-.12s-.06-.18-.18-.3l-.12-.18c0-.12.24-.24.48-.24l.54.06c.18 0 .24-.06.3-.18v-.12c0-.06-.06-.12-.24-.12-.06 0-.12 0-.12-.06l.6-.36c.42-.18.78-.36.9-.36l-.06.24-.12.06.06.06.18-.06c.78-.24.84-.24.84-.42 0-.06.12-.12.24-.12s.24-.06.24-.18c.06-.12.24-.3.42-.36.12 0 .36-.12.42-.24.36-.36.54-.48.66-.48h.12c.12 0 .12-.06.18-.12 0-.06.24-.24.48-.24.36-.12.96-.54.96-.78l-.06-.06-1.08.48c0-.06.24-.3.54-.48.24-.12.48-.18.6-.18 0 .12.06.18.18.18s.36-.18.6-.42c.18-.24.36-.42.36-.48s.12-.06.3-.06h.18c.12 0 .18 0 .18-.06 0-.12.18-.3.42-.42s.36-.3.36-.36 0-.06-.06-.06l-.24.06c-.06 0-.06 0-.06-.06V42c.06-.12.18-.12.3-.12h.06c.18 0 .6-.24 1.02-.54.48-.36.84-.6.84-.66-.12 0-.42.18-.78.42-.3.24-.66.42-.72.48-.06 0-.12-.06-.12-.12s.12-.24.36-.36c1.08-.72 4.32-3.84 4.32-4.26 0-.06.06-.12.18-.12s.18-.06.18-.06v-.06c0-.12.12-.3.36-.54.18-.24.3-.42.3-.6 0-.3-.36-.54-1.14-.6l-.54-.06-.24.06v.06c0 .12-.36.18-1.08.18h-1.5l-1.68-.12c-.18 0-.24.06-.24.12 0 .12-.36.24-.72.24l-.3-.06c-.12-.06-.12-.06-.12-.12l.18-.18h-.06c-.12 0-.24.06-.3.12 0 .06-.18.12-.36.12-.12 0-.24.12-.24.24 0 .06 0 .12-.06.12l-.3-.3-.36-.24-.06.06c0 .06-.12.12-.24.18h-.18l.24.12c.12.06.18.06.18.12l-.24.12-.72-.18-.9.12c0 .06.06.06.18.12l.18.06c0 .06-.18.12-.54.18l-.48.06c-.12 0-.12 0-.12-.06v-.06l-.06-.12-.18.06c-.12 0-.24.12-.24.18l-.06.06-.18-.06c-.12 0-.36.06-.48.18-.18.18-.42.24-1.44.42-.12.06-.3.06-.36.12s-.3.06-.54.06c-.18 0-.42.06-.42.18-.06.12-.12.18-.24.18l-.48-.12c-.12 0-.18.06-.24.12s-.3.18-.54.18l-.3.06c-.06 0-.12 0-.12-.06l.06-.06v-.12l-.12.12-.24.12-.12-.06s-.24.06-.42.18c-.24.18-.6.24-1.08.24h-.36c-.24 0-.42 0-.42.06l-.06.06c-.06 0-.12-.06-.18-.12-.12-.12-.36-.18-.78-.18-.36.06-.78.06-1.02.06h-.12c-.24 0-.6-.06-.96-.18-.48-.18-.78-.24-.84-.24l.36.18c.18.06.3.12.3.18v.06h-.06c-.12 0-.36-.06-.66-.18-.66-.3-1.56-1.38-1.8-2.1-.12-.18-.24-.36-.3-.36-.24 0-1.26-1.56-1.56-2.4-.18-.48-.48-1.62-.6-2.76-.18-1.02-.24-1.56-.24-2.04 0-.42.06-.72.12-1.2.18-.78.3-1.08.42-1.08s.18-.06.18-.18-.06-.18-.18-.18c-.06 0-.06-.06-.06-.12v-.06l.12-.06h.12l.06.06v-.12c-.06-.06-.06-.24-.06-.36.06-.12.06-.18.12-.18l.12.12c.24 0 .48-.6.48-1.14.06-.54.3-1.32.54-1.5.06 0 .12.06.12.18 0 .18-.12.48-.24.66l-.06.12.06.12c.06 0 .18-.24.3-.48.18-.24.36-.54.48-.6s.12-.06.12-.12l-.12-.18c-.12-.12-.18-.18-.18-.3l.18-.36c.12-.12.18-.18.24-.18 0 .12-.06.24-.12.36l-.06.18.12-.06c.12-.06.18-.24.18-.42v-.36c0-.3.06-.36.12-.36s.06.06.06.12v.24s0 .06.06.06c.12 0 .48-.36.72-.72.18-.3.36-.6.48-.6s.24-.18.3-.42c.06-.18.3-.54.54-.72.18-.24.78-.72 1.2-1.2.48-.42.9-.84 1.02-.9l1.2-1.02c.54-.48 1.02-.84 1.08-.84.12 0 .42-.24.72-.54.96-1.02 1.26-1.26 1.86-1.56.3-.18.6-.36.6-.42s.12-.12.24-.12c.06 0 .12-.06.12-.12v-.12l.12-.06c.12 0 .24-.06.24-.12s.42-.42.84-.72c.78-.54 1.26-.84 2.88-1.8.3-.18.84-.3 1.14-.3.36-.06.54-.12.54-.24 0-.06.42-.36.96-.54l1.14-.54c.36-.18 1.86-.48 3.72-.66L24.6 6c2.34 0 3.3 1.02 4.98 3.24.3.54.78 1.26 1.02 1.56.36.48.48.84.66 1.92l.12 1.02c0 .24-.06.36-.12.36s-.12.18-.12.42v.24c0 .12-.06.24-.12.24-.12 0-.36.12-.54.36-.12.18-.48.42-.66.54-.24.06-.42.18-.42.3 0 .06-.12.12-.3.12-.24 0-.3-.06-.3-.42 0-.3-.06-.36-.24-.36h-.06c-.12 0-.18-.12-.24-.42 0-.24-.12-.42-.18-.42-.12 0-.12-.06-.12-.12 0-.12.06-.24.24-.42l.24-.42.24-.48c.12-.12.18-.24.18-.36 0-.3-.3-.54-1.02-.9s-1.92-.6-3.12-.6l-1.44.12-1.02.18c-.18 0-.36.06-.42.12s-.24.06-.42.06-.36.12-.42.18c-.12.06-.42.18-.78.18-.3 0-.6.06-.6.12s-.18.12-.42.12-.48.12-.6.3c-.06.12-.3.24-.54.24l-.48.24c-.18.3-1.2.96-1.86 1.26-.36.12-.78.36-.9.54-.18.18-.54.42-.84.6s-.66.42-.78.54c-.18.18-.42.42-.6.54l-1.2.9c-.48.42-1.02.72-1.14.72-.18 0-.36.12-.42.36-.06.3-.36.54-.6.54h-.06c-.06 0-.24.18-.42.42-.12.24-.36.42-.48.42-.06 0-.36.3-.6.6l-3.24 4.02c-.42.6-1.8 3.06-1.8 3.18-.06.24-.24.72-.42 1.02-.3.54-.54 1.92-.54 2.76 0 .36.06.6.12.72.3.3 1.5.54 2.76.54.66 0 1.26-.06 1.8-.18l4.56-1.08 4.44-.96c.3 0 .78-.06.96-.12l.96-.18c.3 0 .72-.06.9-.12.66-.12 2.4-.18 3.96-.18h1.02c2.76 0 3 .06 3.12.18l.12.06v-.06c0-.12.06-.18.12-.18.12 0 .18.06.18.18s.12.18.24.18H27c.36 0 1.26.9 1.86 1.86.36.48.72 1.14.9 1.44s.42.54.48.54c.06.06.12.18.12.3 0 .18.18.54.3.78.3.54.6 1.92.6 2.46l-.06.24c-.06.06-.12.12-.12.18l.06.24c0 .36-.42 1.38-.78 1.86-.18.18-.42.54-.48.78-.24.48-1.14 1.5-1.38 1.5l-.06-.06-.06.12c0 .24-1.08 1.44-1.26 1.44-.12 0-.18.12-.18.18s-.06.12-.18.12-.24.12-.24.18c0 .48-2.46 2.52-3.18 2.7-.18.06-.42.24-.42.36-.06.18-.3.36-.6.48-.3.06-.72.3-.9.48-.18.24-.42.36-.54.36l-.06.06.12.12c0 .18-.48.48-.72.48l-.18-.06.06.12c0 .24-.48.6-.96.66-.24.06-.66.3-.84.54-.6.6-2.16 1.56-2.52 1.56h-.06c-.12 0-.36.12-.48.3-.36.36-.42.42-3.12 1.98-.9.48-1.74.9-1.92.9-.12 0-.18 0-.18.06s-.48.42-1.08.72c-.78.42-1.44.72-1.86.72l-.42-.12-.3-.06c0 .06.06.12.18.18.18.06.24.12.24.18 0 .18-.24.3-.72.54l-1.38.66c-.24.18-.42.24-.54.24l-.12-.06c0-.06-.06-.12-.18-.12l-.42.12c-.24.12-.54.18-.66.24-.06 0-.12.06-.12.12l.12.24c0 .06-.06.12-.12.12s-.18-.12-.24-.18c0-.06-.06-.06-.12-.06-.12 0-.24.06-.48.18-.3.18-.78.36-1.14.42zm16.5-50.88.18-.06c.06-.06.12-.12.12-.18s0-.06-.06-.06-.12.06-.18.12zm-3.6.6v-.18c.06-.06.12-.12.18-.12v.12c-.06.12-.12.18-.18.18zm8.58 1.02.12-.06-.06-.06h-.18v.06zm-12 1.38c-.06 0-.06 0-.06-.06 0-.12.6-.6.72-.6l.12.06c0 .12-.18.3-.42.42zm4.5.06.72-.36v-.06h-.06l-.48.24zm-2.88.9c.12 0 .18-.06.24-.12v-.12c0-.06 0-.06-.06-.06s-.18.06-.24.18c0 .06 0 .12.06.12zm1.68 0 .06-.06v-.06h-.18v.06zm-.78.6c.06 0 .12-.06.12-.18l.06-.06-.06-.06-.18.24zm-1.8-.06c.12 0 .24 0 .42-.12l.06-.06s-.12-.06-.42-.06l-.42.12.06.06c.12.06.18.06.3.06zm.72.78c.12 0 .24-.06.36-.12l.12-.12c0-.06-.06-.06-.18-.06s-.3.06-.3.18l-.06.12h.06zm1.86.6.12-.06v-.06h-.18v.06zm-7.38.72-.12-.06v-.06h.12l.12.06zm5.88.48.3-.12c0-.06-.12-.06-.3-.06l-.24.06v.06c0 .06.06.06.12.06h.12zm-1.8.18c.12-.06.24-.12.24-.18l-.24-.06c-.12 0-.24.12-.24.18l.12.06h.12zm-5.22.54-.06-.06.06-.12c0-.06.12-.12.12-.12l.06.06-.06.06c0 .12-.12.18-.12.18zm-.42.42-.06-.06.06-.06c.06-.12.12-.18.18-.18v.18c-.06.06-.12.12-.18.12zm-.66.72v-.18c.06-.12.18-.24.3-.3l.12-.06-.12.24c-.18.18-.24.3-.3.3zm4.62 1.2.12-.06-.06-.06h-.18v.06zm-.54.6c.06 0 .12-.06.12-.18 0-.06 0-.12-.06-.12s-.12.06-.12.12v.06c0 .06 0 .12.06.12zm-2.34.24v-.06l-.12-.06-.12.06v.06h.24zm2.4.3.24-.12c0-.06 0-.12-.12-.12-.06 0-.18.06-.18.12v.06zm-.72 0 .18-.06c.12-.06.18-.12.18-.18h-.06c-.06 0-.12 0-.24.12zm-4.8 7.38c.12 0 .24-.06.24-.18 0-.06-.06-.12-.18-.12-.06 0-.18.06-.18.12v.06c0 .06.06.12.12.12zm23.82 2.16c-.18 0-.3 0-.36-.06s-.9-.06-1.92-.06c-1.08 0-1.92-.06-1.98-.18 0-.06.72-.12 1.56-.12h.78c.6 0 1.2 0 1.5.06.18.06.42.06.66.06.12 0 .24.06.24.12v.06c-.06.06-.3.12-.48.12zm-7.38 0-.18-.06.06-.06c.18-.12 1.74-.24 2.46-.24.24 0 .42.06.42.12s-.24.12-.6.12-1.08 0-1.56.06zm-5.34.9-.06-.06.42-.18c1.14-.3 3.24-.66 3.9-.66h.12c.12.12.12.18.12.18-.3 0-3.24.48-3.72.54zm-1.74.42h-.12c-.12 0-.12 0-.12-.06l.12-.06.12.06v.06zm7.86.48c.12 0 .12-.06.12-.12l-.12-.06-.12.06v.06zM9 31.68h-.42l.06-.06H9v.06zm12.12.18c.12 0 .18 0 .18-.06l-.18-.18H21v.12c0 .06.06.12.12.12zm3.54 0 .12-.06v-.06h-.24v.06zm-6 .42v-.18c0-.12-.12-.24-.24-.24s-.12 0-.12.06l.06.18c.12.12.24.18.3.18zm7.32-.24.12-.06v-.06l-.12-.06-.06.12zm-10.26.54.06-.12-.06-.12h-.06l-.06.12c.06.12.06.12.12.12zm-3.6.36c.12 0 .42-.12.48-.3l.06-.12-.06-.06c-.18 0-.6.3-.6.42 0 .06.06.06.12.06zm12.24-.24v-.06H24l-.06.06h.42zm-7.98.18-.06-.06c0-.06-.06-.06-.06-.06l-.12.06v.06h.24zm-2.52 0v-.06c0-.06-.06-.06-.12-.06l-.24.06c0 .06.06.06.18.06h.18zm3.6.18.12-.06-.12-.12-.12.06V33zm-6.96.12c.18 0 .36-.06.42-.12V33c0-.06 0-.06-.06-.06s-.18 0-.36.12l-.24.12h.24zm-.54.3c.12 0 .18-.06.18-.12s-.18-.12-.42-.12h-.3l.12.12zm3.42.24c.18 0 .3 0 .3-.12 0-.06-.12-.12-.3-.12s-.3.06-.3.12.18.12.3.12zm-1.14-.06.12-.06-.06-.06c0-.06-.06-.06-.06-.06-.06 0-.12 0-.12.06v.06zm4.56 0 .06-.06v-.06c0-.06-.06-.06-.12-.06 0 0-.06 0-.06.06v.06zm6.84.54c.12 0 .24-.06.24-.18v-.12l.12.12c.06.12.12.12.18.12l.06-.12c0-.12-.06-.12-.24-.12h-.24c-.12 0-.24-.06-.24-.18 0-.06 0-.06-.06-.06l-.06.12c-.06.12-.06.24-.06.3.06.06.18.12.3.12zm1.2-.3c0-.06 0-.18-.06-.24-.06 0-.06.06-.06.12 0 .12.06.12.12.12zm-9.66 0c.18 0 .3 0 .3-.06s-.24-.12-.42-.12l-.12.06c0 .06.06.12.24.12zm-.84.18c.06 0 .12-.06.12-.18 0-.06-.06-.12-.18-.12-.06 0-.12.06-.12.12 0 .12.06.18.18.18zm10.92-.06.12-.06c.12 0 .24-.12.24-.12 0-.06-.12-.06-.24-.06s-.24.06-.24.12zm-4.08-.12-.06-.06c0-.06-.06-.06-.06-.06l-.12.06v.06h.24zm-1.38.18c.18 0 .3 0 .3-.06l-.06-.06c-.06-.06-.18-.06-.3-.06h-.12c-.18 0-.3.06-.3.12 0 0 .18.06.48.06zm2.4.12.12-.12v-.06c0-.06 0-.12-.06-.12-.12 0-.18.12-.18.18s.06.12.12.12zm-5.46-.12c.12 0 .18-.06.18-.06v-.06h-.3l-.06.06c0 .06.06.06.18.06zm1.26.24.54-.18c0-.06-.12-.06-.36-.06s-.42.06-.42.12c.06.06.12.12.24.12zm2.64.06.12-.06v-.06l-.12-.06-.06.12zm-4.86.66c.3 0 .78-.12.9-.24l.06-.06-.06-.06-.18.06c-.12 0-.3-.12-.42-.24s-.24-.24-.3-.24h-.06v.06l.12.3c.12.06.12.12.12.18l-.42-.12c-.06 0-.12.06-.12.12s.06.12.12.18zm1.8-.24.3-.12.12-.12c0-.06 0-.06-.12-.06-.18 0-.3.06-.36.18v.06c0 .06 0 .06.06.06zm5.52 0c.12 0 .24-.06.3-.12 0-.06 0-.06-.06-.06h-.18c-.18.06-.24.06-.24.12s.06.06.18.06zm-9.72.72c0-.06-.06-.06-.12-.12l-.36-.18-.06.06.12.12c.18.06.3.12.42.12zm.48-.12.12-.06v-.06h-.24c0 .06 0 .12.12.12zm-1.38.12.06-.12-.06-.12h-.06v.12c0 .12.06.12.06.12zm-.84.18c.06 0 .24-.06.36-.18l.06-.12c-.12 0-.24.06-.36.12-.06.06-.12.12-.12.18h.06zm.18.3c.06 0 .24-.06.36-.18l.06-.12h-.06l-.3.12c-.06.06-.12.12-.12.18h.06zm-1.08.24c.12 0 .3-.06.42-.12l.12-.06c0-.06-.12-.06-.36-.06s-.36 0-.36-.06l.24-.24-.48.12-.18.12.18.06c.12 0 .24.06.24.12s.06.12.18.12zm16.08.48c.06 0 .06-.06.06-.18 0-.06-.06-.12-.18-.12l-.06.06zm-18.78.6c.12 0 .12-.06.12-.12l-.12-.06-.12.06v.06zm-2.64.66c-.06 0-.12-.06-.18-.12v-.06l.24-.06c.18 0 .3 0 .3.06zm19.68.78.24-.24c.12-.12.24-.3.24-.36v-.06s-.18.12-.3.36zm-.72.54.24-.06c.12 0 .18-.12.18-.24h-.06l-.12.06c-.12.12-.24.18-.24.24zm-.6.78c.06 0 .12-.06.18-.12l.06-.12-.06-.06c-.06 0-.12.06-.18.18v.12zm-.3.3c.06 0 .12-.06.12-.12 0-.12 0-.18-.06-.18s-.12.06-.12.18l-.06.06zm-.48 4.26v-.06c0-.06-.06-.12-.18-.18h-.06v.06c.06.12.18.18.24.18zm-6.24.3c-.12 0-.12-.06-.12-.18l.24-.12c.06 0 .06 0 .06.06v.06c0 .12-.12.18-.18.18zm-1.14.72-.06-.06.12-.24c.06 0 .12.06.12.18 0 .06-.06.12-.18.12zm5.4 2.16.18-.06c.06-.06.12-.06.12-.12v-.06l-.24.12zm-9.96.48c-.12 0-.12-.06-.12-.12h.24v.06zm7.5 1.26.18-.06.12-.24v-.06h-.06c-.12 0-.3.18-.3.3zm-1.02.06c.06 0 .06-.06.06-.06v-.06h-.18v.06zm.06.6.06-.06-.06-.12c0-.06-.12-.12-.24-.12l-.06.06.06.06c.06.12.12.18.24.18zm-3.66.66c.12-.06.18-.18.18-.24-.06-.06-.12-.12-.18-.12s-.12.06-.12.24l.06.12h.06zm-.42.06.12-.06v-.06h-.24c0 .06 0 .12.12.12zm-7.86.3-.12-.06v-.06h.18v.06s0 .06-.06.06zm1.68.9.12-.06v-.06l-.12-.06-.12.06v.06zm8.52-.06c.12 0 .12 0 .12-.06l-.18-.06-.18.12h.24zM6.3 53.76l.12-.06v-.06l-.12-.06-.12.06c0 .06 0 .12.12.12zm-4.08 4.38.06-.06v-.06H2.1v.06zm-1.68.24.06-.12-.06-.06c0-.06 0-.06-.06-.06v.12zm2.58.9c-.06 0-.06-.06-.06-.12s.06-.12.12-.12.06 0 .06.06v.06c0 .06-.06.12-.12.12z" fill="url(#a)" featurekey="monogramFeature-0" transform="translate(5.578 -12.126) scale(2.0209)"/><path d="M95.05 76.56v1.62h-2.107v7.255H91.12v-7.254H89v-1.622h6.051zm6.696 2.438c1.412 0 2.26.786 2.26 2.365v4.072h-1.775v-3.783c0-.928-.516-1.235-1.149-1.235-.657 0-1.376.325-1.388 1.536v3.482h-1.77V76h1.77v3.876c.448-.546 1.155-.878 2.052-.878zm11.615 3.188-.019.424h-4.68c.073 1.05.774 1.554 1.615 1.554.633 0 1.124-.295 1.364-.854l1.622.24c-.418 1.277-1.554 2.008-2.973 2.008-2.04 0-3.373-1.204-3.373-3.28s1.37-3.293 3.317-3.293c1.788 0 3.12.99 3.127 3.2zm-3.114-1.947c-.805 0-1.364.374-1.536 1.216h2.9c-.093-.805-.64-1.216-1.364-1.216zm16.621-2.058h-3.378v2.015h2.918v1.603h-2.918v3.636h-1.855V76.56h5.233v1.622zm7.237.94h1.769v6.314h-1.677l-.043-.761c-.443.559-1.143.884-2.009.884-1.517 0-2.353-.792-2.353-2.187v-4.25h1.776v3.87c0 .835.522 1.142 1.136 1.142.731 0 1.394-.369 1.4-1.53v-3.482zm7.665 6.314c-1.228 0-1.928-.712-1.928-1.972v-2.985H138.6v-1.357h.4c.67 0 1.038-.258 1.038-1.204v-.836h1.597v2.04h1.302v1.357h-1.302v2.795c0 .565.277.817.731.817h.571v1.345h-1.167zm8.434-6.314h1.77v6.314h-1.678l-.043-.761c-.442.559-1.142.884-2.008.884-1.518 0-2.353-.792-2.353-2.187v-4.25h1.775v3.87c0 .835.522 1.142 1.137 1.142.73 0 1.394-.369 1.4-1.53v-3.482zm7.01 1c.319-.558 1.148-1.074 2.063-1.074v1.578c-1.339 0-1.978.394-1.978 1.733v3.077h-1.781v-6.314h1.695v1zm10.755 2.065-.019.424h-4.68c.073 1.05.773 1.554 1.615 1.554.633 0 1.124-.295 1.364-.854l1.621.24c-.417 1.277-1.554 2.008-2.973 2.008-2.04 0-3.372-1.204-3.372-3.28s1.37-3.293 3.317-3.293c1.787 0 3.12.99 3.127 3.2zm-3.114-1.947c-.805 0-1.364.374-1.536 1.216h2.9c-.093-.805-.64-1.216-1.364-1.216zm16.155.51c1.001.276 1.67.933 1.67 2.198 0 1.5-.908 2.488-2.782 2.488h-3.655V76.56h2.875c1.917 0 2.924.922 2.924 2.433 0 .78-.338 1.419-1.032 1.757zm-1.873-2.66h-1.118v2.088h1.197c.787 0 1.13-.467 1.13-1.069 0-.59-.386-1.02-1.21-1.02zm.417 5.768c.995 0 1.34-.535 1.34-1.112 0-.59-.339-1.149-1.377-1.149h-1.498v2.26h1.535zm9.19 1.701c-2.01 0-3.459-1.222-3.459-3.286 0-2.052 1.437-3.274 3.458-3.274 2.034 0 3.465 1.222 3.465 3.274 0 2.064-1.438 3.286-3.465 3.286zm-.02-1.407c1.027 0 1.727-.749 1.727-1.88s-.7-1.879-1.726-1.879c-.989 0-1.683.75-1.683 1.88s.694 1.88 1.683 1.88zm9.454 1.407c-2.008 0-3.458-1.222-3.458-3.286 0-2.052 1.437-3.274 3.458-3.274 2.034 0 3.465 1.222 3.465 3.274 0 2.064-1.438 3.286-3.465 3.286zm-.018-1.407c1.026 0 1.726-.749 1.726-1.88s-.7-1.879-1.726-1.879c-.99 0-1.683.75-1.683 1.88s.694 1.88 1.683 1.88zm10.7 1.284-2.033-2.653h-.368v2.653h-1.788V76h1.788v5.553h.332l1.984-2.432h2.002l-2.488 2.93 2.722 3.384h-2.15z" fill="#fff" featurekey="sloganFeature-0"/><path d="M100.252 41.294c3.252 1.54 7.487 3.98 7.487 8.386 0 1.284-.214 3.765-1.625 5.862-1.584 2.353-4.065 3.508-7.488 3.508-3.636 0-7.872-1.754-9.198-5.733-.043-.129 0-.257.128-.342l3.936-3.38c.171-.129.428-.129.556.085.086.214.257.556.471.984.642 1.326 2.182 2.653 3.893 2.653 1.327 0 3.124-.728 3.124-2.781 0-1.968-2.696-3.08-4.364-3.722-1.926-.77-3.894-1.755-5.562-3.21-1.754-1.624-2.61-3.421-2.61-5.56C89 32.695 93.92 30 98.584 30c3.679 0 6.417 1.925 8.214 5.733.086.17 0 .385-.128.47l-3.808 2.653c-.171.085-.257.085-.428-.129-1.455-2.096-2.738-3.08-4.45-3.08-.898 0-2.994.342-2.994 1.925 0 1.926 3.55 2.91 5.262 3.722zm-7.787 11.809c1.07 2.14 4.022 3.38 6.418 3.38 3.123 0 5.647-2.14 5.99-5.391.428-3.979-2.696-5.69-5.776-7.23l-1.37-.6c-3.165-1.411-5.476-2.48-5.476-5.433 0-3.252 2.995-4.749 5.947-4.749 2.696 0 4.108 1.583 4.835 2.567.257.342.685.043.428-.3-.727-.898-2.268-2.78-5.263-2.78-3.38 0-6.46 1.668-6.46 5.262 0 3.209 2.567 4.45 5.819 5.947l1.326.642c4.236 2.01 5.776 3.893 5.434 6.631-.642 4.364-3.98 4.92-5.434 4.92-3.209 0-5.348-1.925-5.99-3.123-.214-.214-.513 0-.428.257zm32.68-4.364v-1.326c0-.214.171-.385.385-.385h4.877c.214 0 .385.17.385.385v2.695c0 6.29-3.38 8.942-9.754 8.942-5.947 0-9.84-2.353-9.84-8.942V38.856c0-6.332 3.465-8.856 9.84-8.856 6.032 0 9.754 2.31 9.754 8.856v.898a.383.383 0 0 1-.385.385h-4.92a.383.383 0 0 1-.385-.385v-.684c0-2.353-1.754-3.337-3.85-3.337h-.514c-1.412 0-2.353.385-2.995 1.24-.599.813-.813 1.883-.813 3.295v8.47c0 3.723 2.097 4.536 3.808 4.536h.514c2.695 0 3.807-1.797 3.893-4.535zm-4.193-16.087c-4.578 0-7.23 1.626-7.23 6.846v10.31c0 4.75 2.438 6.504 7.23 6.504 4.492 0 7.188-1.626 7.188-6.546 0-.343-.514-.343-.514 0 0 4.32-2.353 6.075-6.674 6.075-4.193 0-6.76-1.455-6.76-6.033v-10.31c0-4.45 2.097-6.375 6.76-6.375 6.075 0 6.29 3.85 6.29 4.278 0 .385.598.428.598 0 0-3.55-3.594-4.749-6.888-4.749zm27.203 8.856V30.77c0-.214.171-.385.385-.385h4.878c.214 0 .385.17.385.385v27.467a.383.383 0 0 1-.385.385h-4.878a.383.383 0 0 1-.385-.385v-11.38h-6.93v11.38a.383.383 0 0 1-.386.385h-4.877c-.214 0-.343-.171-.343-.385V30.77c0-.214.129-.385.343-.385h4.877c.214 0 .385.17.385.385v10.738h6.931zM138.101 55.97c0 .343.556.3.556 0V44.503h12.022V55.97c0 .3.471.343.471 0V32.952c0-.3-.47-.385-.47 0v10.952h-12.023V32.952c0-.3-.556-.3-.556 0v23.017zm21.641 2.653c-.214 0-.342-.171-.342-.385V30.77c0-.214.128-.385.342-.385h4.878c.213 0 .385.17.385.385v27.467a.383.383 0 0 1-.385.385h-4.878zm2.225-25.67v23.06c0 .385.47.385.47 0v-23.06c0-.3-.47-.3-.47 0zm21.898 15.787v-1.326c0-.214.171-.385.385-.385h4.877c.214 0 .385.17.385.385v2.695c0 6.29-3.38 8.942-9.754 8.942-5.947 0-9.84-2.353-9.84-8.942V38.856c0-6.332 3.465-8.856 9.84-8.856 6.032 0 9.754 2.31 9.754 8.856v.898a.383.383 0 0 1-.385.385h-4.92a.383.383 0 0 1-.385-.385v-.684c0-2.353-1.754-3.337-3.85-3.337h-.514c-1.412 0-2.353.385-2.995 1.24-.599.813-.813 1.883-.813 3.295v8.47c0 3.723 2.097 4.536 3.808 4.536h.514c2.695 0 3.807-1.797 3.893-4.535zm-4.193-16.087c-4.578 0-7.23 1.626-7.23 6.846v10.31c0 4.75 2.438 6.504 7.23 6.504 4.492 0 7.188-1.626 7.188-6.546 0-.343-.514-.343-.514 0 0 4.32-2.353 6.075-6.674 6.075-4.193 0-6.76-1.455-6.76-6.033v-10.31c0-4.45 2.097-6.375 6.76-6.375 6.075 0 6.29 3.85 6.29 4.278 0 .385.598.428.598 0 0-3.55-3.594-4.749-6.888-4.749z" fill="#fff" featurekey="nameLeftFeature-0"/><path xmlns="http://www.w3.org/2000/svg" d="M239.963 33.44h-1.733v-1.28a.38.38 0 0 0-.447-.375 14.56 14.56 0 0 1-2.663.243c-2.695 0-4.541-.747-4.575-.759-2.295-.841-4.4-1.27-6.257-1.27-4.34 0-5.906 2.298-5.971 2.396a.366.366 0 0 0-.064.209v24.238c0 .06.015.122.045.175a.356.356 0 0 0-.045.175v1.478c0 .21.17.38.378.38h21.332a.38.38 0 0 0 .379-.38V33.818a.38.38 0 0 0-.38-.379zm-20.952-.71c.31-.383 1.8-1.971 5.277-1.971 1.772 0 3.784.413 5.98 1.217.08.033 1.994.811 4.852.811.79 0 1.577-.06 2.351-.178v24.046a20.514 20.514 0 0 1-4.334.08c-.01 0-.022-.005-.033-.005-.03 0-.056-.004-.087-.007-.065-.004-.133-.012-.201-.02a4.23 4.23 0 0 0-.11-.01c-.012-.005-.019-.005-.03-.005a18.903 18.903 0 0 1-2.97-.558c-2.835-.776-5.566-1.475-7.749-1.475-1.33 0-2.317.278-2.946.827V32.73zm8.284 23.545c-3.11-.167-6.54-.212-8.144.25.379-.746 1.304-1.11 2.806-1.11 1.562-.001 3.56.413 5.338.86zm12.288 2.017h-20.572v-.933c1.009-.679 7.366-.511 13.395.065.038.003.072.007.11.012a21.068 21.068 0 0 0 2.438.135c1.767 0 2.92-.212 2.965-.218a.38.38 0 0 0 .311-.373V34.197h1.353v24.095zm-22.49-25.687a.364.364 0 0 0-.061-.209c-.065-.099-1.63-2.396-5.975-2.396-1.854 0-3.959.429-6.268 1.274-.018.008-1.866.755-4.565.755-.891 0-1.785-.08-2.657-.243a.385.385 0 0 0-.312.083.376.376 0 0 0-.136.292v1.278h-1.737a.38.38 0 0 0-.379.379V58.67c0 .21.17.38.38.38h21.33c.213 0 .38-.17.38-.38v-1.478a.387.387 0 0 0-.046-.18.34.34 0 0 0 .045-.17V32.605zm-.759 25.687h-20.572V34.197h1.357V56.98a.38.38 0 0 0 .307.373c.05.006 1.202.218 2.969.218.637 0 1.266-.026 1.888-.082.186-.02.371-.038.558-.053.033-.005.064-.01.098-.012 6.033-.576 12.39-.744 13.396-.065v.933zm-8.284-2.017c1.782-.447 3.776-.86 5.342-.86 1.501 0 2.422.364 2.805 1.11-1.607-.463-5.039-.417-8.147-.25zm8.284-.793c-.63-.549-1.611-.827-2.942-.827-2.187 0-4.914.699-7.75 1.475-.898.247-1.827.426-2.783.539a3.92 3.92 0 0 1-.2.02 6.396 6.396 0 0 1-.433.041c-.007.004-.011.004-.019.004a20.21 20.21 0 0 1-1.812.079c-1.172 0-2.074-.099-2.518-.158V32.609c.774.118 1.562.178 2.347.178 2.859 0 4.774-.777 4.842-.803 2.207-.812 4.224-1.225 5.99-1.225 3.5 0 4.971 1.58 5.278 1.971v22.752z" fill="#fff" featurekey="inlineSymbolFeature-0"/><path d="M261.046 47.455c-.6 1.241-1.455 2.182-2.653 2.739l3.594 7.915c.128.256-.043.513-.3.513h-5.262c-.171 0-.257-.086-.3-.214l-3.337-7.273h-2.182v7.102a.383.383 0 0 1-.385.385h-4.92c-.171 0-.3-.171-.3-.385V30.77c0-.214.129-.385.3-.385h8.9c4.748 0 7.615 2.695 7.615 7.7v5.391c0 1.498-.257 2.91-.77 3.98zm-4.835-5.305v-2.78c0-2.996-1.112-3.295-4.364-3.295h-1.24v9.455h1.24c2.696 0 4.279-.043 4.364-3.38zm-8.086 13.862v-7.316h6.16l3.595 7.402c.085.214.599.128.47-.257l-3.594-7.273c3.338-.47 4.493-2.225 4.493-5.391v-5.348c0-4.706-4.279-5.091-5.605-5.091h-5.776c-.085 0-.256.128-.256.256v23.018c0 .3.513.3.513 0zm10.61-18.183v5.348c0 4.364-2.78 4.963-5.476 4.963h-5.134V33.294h5.52c4.62 0 5.09 3.123 5.09 4.535zm19.288-7.444c2.91 0 5.092.812 6.546 2.395 1.284 1.412 1.926 3.509 1.926 6.076v11.338c0 5.176-2.995 8.428-8.472 8.428h-10.696c-.213 0-.342-.171-.342-.385V30.77c0-.214.129-.385.342-.385h10.696zm2.867 18.525v-8.77c0-2.696-1.412-4.407-4.407-4.407h-3.85v17.541h3.85c2.567 0 4.407-1.669 4.407-4.364zm-11.295-15.916v23.018c0 .171.171.214.257.214h6.974c4.92 0 7.144-2.952 7.144-5.69V39.583c0-4.535-2.395-6.845-7.273-6.845h-6.845c-.086 0-.257.042-.257.256zm13.862 6.59v10.952c0 3.423-3.423 5.22-6.631 5.22h-6.718V33.293h6.59c4.491 0 6.759 2.01 6.759 6.29zm13.47-8.943c.042-.128.128-.256.299-.256h5.305c.171 0 .257.128.3.256l7.401 27.51c.043.257-.128.471-.385.471h-4.877c-.128 0-.257-.086-.3-.257l-1.668-5.99h-6.247l-1.625 5.99c-.043.171-.129.257-.3.257h-4.92c-.257 0-.428-.214-.385-.47zm1.197 16.43h3.552l-1.84-6.461zm6.59 2.524 1.967 6.417c.086.257.556.214.428-.128l-6.845-22.761c-.129-.556-.856-.6-.984 0l-6.632 22.76c-.128.3.342.429.47.172l1.883-6.46h9.712zm-9.584-.557 4.663-15.744 4.749 15.744h-9.412zm30.369-18.268c0-.214.17-.385.385-.385h4.92c.214 0 .385.17.385.385v27.467a.383.383 0 0 1-.385.385h-4.75c-.17 0-.341-.086-.384-.214l-6.247-14.076v13.905a.383.383 0 0 1-.385.385h-4.877c-.214 0-.342-.171-.342-.385V30.77c0-.214.128-.385.342-.385h5.048c.172 0 .257.128.3.213l5.99 13.82V30.77zm3.08 25.285V32.952c0-.3-.556-.385-.556 0v21.99l-11.167-22.076c-.128-.171-.47-.171-.47.086v23.06c0 .385.513.385.513 0V34.064l11.124 22.034c.171.3.556.214.556-.043zm21.641-7.316v-1.326c0-.214.172-.385.385-.385h4.878c.214 0 .385.17.385.385v2.695c0 6.29-3.38 8.942-9.755 8.942-5.947 0-9.84-2.353-9.84-8.942V38.856c0-6.332 3.465-8.856 9.84-8.856 6.033 0 9.755 2.31 9.755 8.856v.898a.383.383 0 0 1-.385.385h-4.92a.383.383 0 0 1-.385-.385v-.684c0-2.353-1.755-3.337-3.851-3.337h-.513c-1.412 0-2.353.385-2.995 1.24-.6.813-.813 1.883-.813 3.295v8.47c0 3.723 2.096 4.536 3.808 4.536h.513c2.695 0 3.808-1.797 3.893-4.535zm-4.192-16.087c-4.578 0-7.23 1.626-7.23 6.846v10.31c0 4.75 2.438 6.504 7.23 6.504 4.492 0 7.187-1.626 7.187-6.546 0-.343-.513-.343-.513 0 0 4.32-2.353 6.075-6.674 6.075-4.193 0-6.76-1.455-6.76-6.033v-10.31c0-4.45 2.096-6.375 6.76-6.375 6.075 0 6.289 3.85 6.289 4.278 0 .385.599.428.599 0 0-3.55-3.594-4.749-6.888-4.749zm15.01 25.97c-.215 0-.343-.171-.343-.385V30.77c0-.214.128-.385.342-.385h14.547c.214 0 .385.17.385.385v4.578a.383.383 0 0 1-.385.385h-9.242v5.818h7.188c.214 0 .342.171.342.385V46.6c0 .214-.128.385-.342.385h-7.188v6.289h9.242c.214 0 .385.171.385.385v4.578a.383.383 0 0 1-.385.385h-14.547zm2.138-25.542v22.761c0 .257.172.342.343.342h9.84c.385 0 .3-.513 0-.513h-9.626V44.503h7.872c.257 0 .257-.599 0-.599h-7.872v-10.61h9.626c.3 0 .385-.556 0-.556h-9.84a.337.337 0 0 0-.343.342z" fill="#fff" featurekey="nameRightFeature-0"/></svg>